<svg width="62" height="77" viewBox="0 0 62 77" fill="none" xmlns="http://www.w3.org/2000/svg">
<path fill-rule="evenodd" clip-rule="evenodd" d="M31.0058 2C30.2174 2 29.4511 2.24487 28.817 2.69675L25.04 5.38664C24.0647 6.08086 22.8925 6.45364 21.6917 6.45413H17.0188C16.2303 6.45351 15.463 6.69767 14.8283 7.14887C14.1941 7.5997 13.725 8.23319 13.4842 8.95625C13.4841 8.95653 13.4843 8.95597 13.4842 8.95625L12.0424 13.3081C11.6672 14.4394 10.9377 15.422 9.96236 16.117L6.18534 18.807C5.55121 19.2584 5.08236 19.8928 4.84244 20.6164C4.60261 21.3398 4.60256 22.1184 4.84229 22.8418C4.84228 22.8418 4.8423 22.8418 4.84229 22.8418L6.28521 27.194C6.65965 28.3259 6.65985 29.546 6.2854 30.6778L4.84237 35.0294C4.84233 35.0295 4.8424 35.0294 4.84237 35.0294C4.60281 35.7528 4.60285 36.5317 4.84266 37.255C5.0826 37.9787 5.55125 38.6129 6.18531 39.0644L9.96208 41.7542C10.9373 42.4497 11.6671 43.4326 12.0423 44.564L12.5933 46.2266C12.614 46.2758 12.6308 46.3265 12.6435 46.3783L13.4843 48.9155C13.7241 49.6393 14.1927 50.2737 14.8267 50.7254C15.461 51.1772 16.2274 51.4221 17.0159 51.4221H21.6835C22.8847 51.422 24.057 51.7947 25.0323 52.4896C25.0322 52.4895 25.0323 52.4896 25.0323 52.4896L28.809 55.1793C29.4432 55.6312 30.2096 55.8762 30.9981 55.8762C31.353 55.8762 31.7035 55.8266 32.0395 55.7307C32.0765 55.7171 32.114 55.7059 32.1517 55.6969C32.5206 55.5792 32.8702 55.4051 33.1869 55.1795L36.9637 52.4896C36.9637 52.4897 36.9638 52.4896 36.9637 52.4896C37.9394 51.7947 39.1121 51.4219 40.3136 51.4221C40.3135 51.4221 40.3136 51.4221 40.3136 51.4221H44.9803C45.7687 51.4222 46.5352 51.1774 47.1695 50.7255C47.8036 50.2739 48.2721 49.6395 48.5117 48.9157L49.9537 44.5642C50.329 43.4323 51.059 42.4494 52.035 41.7543L55.8116 39.0646C55.8116 39.0646 55.8117 39.0645 55.8116 39.0646C56.4455 38.6129 56.914 37.9786 57.1538 37.255C57.3935 36.5316 57.3935 35.753 57.1538 35.0296L55.712 30.6788C55.3361 29.5465 55.3361 28.3259 55.712 27.1937L57.1538 22.842C57.3934 22.1196 57.3941 21.3416 57.1556 20.6189C56.917 19.8961 56.4503 19.2622 55.8183 18.81C55.8181 18.8098 55.8185 18.8101 55.8183 18.81L52.043 16.1212C52.0429 16.1211 52.043 16.1212 52.043 16.1212C51.067 15.4264 50.3369 14.4438 49.9616 13.3122L48.5196 8.95992C48.5196 8.95985 48.5196 8.95999 48.5196 8.95992C48.2797 8.23639 47.811 7.60205 47.177 7.15056C46.5428 6.69884 45.7765 6.45408 44.9881 6.45413H40.3213C39.12 6.45389 37.9475 6.08126 36.9718 5.38681L33.1948 2.69687C32.5606 2.245 31.7942 2 31.0058 2ZM31.8697 57.8104C31.5825 57.854 31.2911 57.8762 30.9981 57.8762C29.7966 57.8762 28.6241 57.5033 27.6486 56.8083L23.8721 54.1187C23.238 53.6669 22.4718 53.422 21.6835 53.4221H17.0159C15.8144 53.4221 14.6418 53.0493 13.6663 52.3543C12.6904 51.6591 11.9608 50.6764 11.5858 49.5446L11.4413 49.1086L2.02948 66.1995C2.00712 66.2401 1.99757 66.2846 2.00053 66.3279C2.00349 66.3713 2.01896 66.4148 2.0475 66.4532C2.07618 66.4919 2.11742 66.5243 2.16829 66.5442C2.21928 66.5642 2.27598 66.5698 2.33112 66.5599L11.7331 64.865C12.2386 64.7738 12.7615 64.8543 13.2161 65.095C13.6711 65.3358 14.0329 65.7242 14.2372 66.1995L17.9509 74.8392C17.9689 74.881 17.9998 74.9198 18.0428 74.9492C18.086 74.9788 18.1387 74.997 18.195 74.9996C18.2513 75.0023 18.3062 74.9891 18.3529 74.9633C18.3995 74.9375 18.4348 74.901 18.4573 74.8602L25.7328 61.6478C25.9992 61.164 26.6074 60.9878 27.0912 61.2542C27.575 61.5206 27.7512 62.1287 27.4848 62.6125L20.2092 75.8249C20.0029 76.1997 19.6943 76.5068 19.3214 76.7131C18.9488 76.9194 18.5258 77.0174 18.101 76.9974C17.6763 76.9775 17.2643 76.8402 16.9126 76.5993C16.5608 76.3583 16.2829 76.0228 16.1137 75.6295L12.3998 66.9893C12.3781 66.9389 12.3376 66.8928 12.2805 66.8626C12.223 66.8322 12.1547 66.8212 12.0879 66.8332L2.68742 68.5279C2.68718 68.5279 2.68767 68.5278 2.68742 68.5279C2.26892 68.6035 1.83617 68.5619 1.4398 68.4068C1.04306 68.2517 0.696341 67.9885 0.441489 67.6452C0.186493 67.3016 0.0344167 66.8922 0.00518029 66.4642C-0.0240544 66.0362 0.0709471 65.6098 0.277559 65.2347C0.277519 65.2348 0.277598 65.2347 0.277559 65.2347L10.5836 46.5201L10.144 45.1935C10.1439 45.1935 10.144 45.1936 10.144 45.1935C9.90395 44.4699 9.4355 43.8354 8.80187 43.3833M8.80187 43.3833L5.02515 40.6936C4.04925 39.9986 3.31948 39.0161 2.94428 37.8844C2.569 36.7525 2.56883 35.5325 2.94382 34.4005L4.38662 30.0496C4.62609 29.3258 4.62611 28.5468 4.38667 27.823C4.38666 27.8229 4.38669 27.823 4.38667 27.823L2.9439 23.4712C2.56871 22.3391 2.56875 21.119 2.94406 19.987C3.31929 18.8552 4.04921 17.8727 5.02527 17.1778L8.8016 14.4884C8.80151 14.4884 8.80169 14.4883 8.8016 14.4884C9.4352 14.0367 9.90385 13.4025 10.1439 12.6792L11.5858 8.32691L11.5862 8.32572C11.9625 7.19457 12.6932 6.21284 13.6695 5.51877C14.6456 4.82496 15.8181 4.45326 17.0192 4.45413M21.6909 4.45413C21.6907 4.45413 21.691 4.45413 21.6909 4.45413V4.45413ZM31.8697 57.8104L41.7878 75.8249C41.9942 76.1997 42.3029 76.5068 42.6757 76.7132C43.0484 76.9194 43.4713 77.0174 43.8961 76.9975C44.3208 76.9775 44.7328 76.8402 45.0845 76.5993C45.4363 76.3583 45.7142 76.0228 45.8834 75.6295L49.5973 66.9893C49.619 66.9389 49.6595 66.8929 49.7166 66.8626C49.7741 66.8322 49.8424 66.8212 49.9092 66.8333L59.3126 68.5279M33.7932 57.1572C33.9839 57.0519 34.169 56.9355 34.3475 56.8083L38.124 54.1187C38.7584 53.6668 39.5249 53.4219 40.3134 53.4221H44.9801C44.9801 53.4221 44.9802 53.4221 44.9801 53.4221C46.1816 53.4222 47.3544 53.0495 48.33 52.3545C49.3059 51.6592 50.0355 50.6764 50.4103 49.5444L51.8522 45.1935C51.8521 45.1935 51.8522 45.1934 51.8522 45.1935C52.0922 44.4696 52.561 43.835 53.1953 43.3833L56.972 40.6935C57.9477 39.9984 58.6773 39.0157 59.0523 37.8841C59.4274 36.7522 59.4274 35.5323 59.0523 34.4004L57.6103 30.0491C57.3703 29.326 57.3701 28.5469 57.6102 27.8238L59.0521 23.4714C59.0521 23.4715 59.0522 23.4712 59.0521 23.4714C59.427 22.3412 59.428 21.1227 59.0548 19.992C58.6815 18.8614 57.9545 17.879 56.9814 17.1829L53.203 14.492C52.5689 14.0406 52.1 13.4064 51.86 12.683C51.86 12.6829 51.86 12.6831 51.86 12.683L50.4181 8.33071C50.0429 7.19912 49.3131 6.21642 48.3372 5.52147C47.3617 4.82673 46.1893 4.45407 44.988 4.45413C44.988 4.45413 44.988 4.45413 44.988 4.45413H40.3215M33.7932 57.1572L43.5399 74.8603C43.5623 74.901 43.5976 74.9375 43.6442 74.9633C43.6909 74.9892 43.7458 75.0023 43.8021 74.9997C43.8584 74.997 43.9111 74.9788 43.9543 74.9493C43.9973 74.9198 44.0282 74.881 44.0462 74.8392L47.7599 66.1995C47.9642 65.7242 48.326 65.3358 48.781 65.095C49.2356 64.8543 49.7585 64.7739 50.264 64.865C50.264 64.865 50.264 64.865 50.264 64.865L59.6681 66.5597C59.7232 66.5697 59.7807 66.5642 59.8317 66.5443C59.8826 66.5244 59.9238 66.4919 59.9525 66.4532C59.9811 66.4148 59.9965 66.3712 59.9995 66.3279C60.0024 66.2846 59.993 66.2403 59.9707 66.1997L53.8968 55.1699C53.6303 54.6861 53.8066 54.0779 54.2903 53.8115C54.7741 53.5451 55.3823 53.7213 55.6487 54.2051L61.7223 65.2345C61.7223 65.2345 61.7224 65.2346 61.7223 65.2345M27.6566 1.06779C28.632 0.372827 29.8045 0 31.0058 0C32.2072 0 33.3796 0.372828 34.355 1.06779C34.355 1.06775 34.3551 1.06783 34.355 1.06779L38.1316 3.75739C38.7662 4.20909 39.5329 4.45393 40.3215 4.45413M27.6566 1.06779C27.6565 1.06783 27.6566 1.06775 27.6566 1.06779V1.06779ZM30.9996 16.465C29.6315 16.465 28.2364 17.8546 28.2364 19.954C28.2364 22.0534 29.6315 23.443 30.9996 23.443C32.3677 23.443 33.7628 22.0534 33.7628 19.954C33.7628 17.8546 32.3677 16.465 30.9996 16.465ZM26.2364 19.954C26.2364 17.095 28.211 14.465 30.9996 14.465C33.7882 14.465 35.7628 17.095 35.7628 19.954C35.7628 22.813 33.7882 25.443 30.9996 25.443C28.211 25.443 26.2364 22.813 26.2364 19.954ZM22.4773 21.7695C21.7826 19.7768 19.9947 18.8994 18.6975 19.334C17.4149 19.7638 16.5503 21.5078 17.2439 23.4976C17.9386 25.4903 19.7266 26.3677 21.0237 25.9331C22.3063 25.5033 23.171 23.7592 22.4773 21.7695ZM18.0621 17.4377C20.6982 16.5543 23.4248 18.4119 24.3658 21.1111C25.3078 23.8132 24.3098 26.9412 21.6592 27.8294C19.023 28.7128 16.2964 26.8552 15.3554 24.156C14.4134 21.4539 15.4114 18.3259 18.0621 17.4377ZM43.307 19.3434C42.0099 18.9087 40.222 19.7861 39.5273 21.7788C38.8336 23.7686 39.6983 25.5126 40.9809 25.9424C42.278 26.3771 44.066 25.4997 44.7606 23.507C45.4543 21.5172 44.5897 19.7732 43.307 19.3434ZM37.6388 21.1204C38.5797 18.4212 41.3063 16.5636 43.9425 17.447C46.5932 18.3353 47.5912 21.4633 46.6492 24.1653C45.7082 26.8645 42.9816 28.7222 40.3454 27.8388C37.6948 26.9505 36.6968 23.8225 37.6388 21.1204ZM23.941 30.1167C22.1722 31.3739 21.198 33.0192 21.198 34.7302C21.198 36.4412 22.1722 38.0865 23.941 39.3437C25.7077 40.5993 28.2001 41.4074 30.9995 41.4074C33.799 41.4074 36.2913 40.5993 38.058 39.3437C39.8269 38.0865 40.801 36.4412 40.801 34.7302C40.801 33.0192 39.8269 31.3739 38.058 30.1167C36.2913 28.861 33.799 28.053 30.9995 28.053C28.2001 28.053 25.7077 28.861 23.941 30.1167ZM22.7824 28.4865C24.9251 26.9636 27.8335 26.053 30.9995 26.053C34.1656 26.053 37.0739 26.9636 39.2167 28.4865C41.3572 30.0079 42.801 32.2012 42.801 34.7302C42.801 37.2592 41.3572 39.4525 39.2167 40.9739C37.0739 42.4968 34.1656 43.4074 30.9995 43.4074C27.8335 43.4074 24.9251 42.4968 22.7824 40.9739C20.6419 39.4525 19.198 37.2592 19.198 34.7302C19.198 32.2012 20.6419 30.0079 22.7824 28.4865Z" fill="#222220"/>
</svg>
