<svg width="70" height="70" viewBox="0 0 70 70" fill="none" xmlns="http://www.w3.org/2000/svg">
<path fill-rule="evenodd" clip-rule="evenodd" d="M54.8896 0.292894C55.2801 -0.0976309 55.9133 -0.0976312 56.3038 0.292893L60.098 4.08708C60.1046 4.09337 60.1112 4.09978 60.1177 4.10629L65.8941 9.88259C65.9005 9.88904 65.9068 9.89556 65.9131 9.90216L69.7071 13.6962C70.0976 14.0867 70.0976 14.7199 69.7071 15.1104C69.3166 15.5009 68.6834 15.5009 68.2929 15.1104L65.1867 12.0042L59.8718 17.3191L61.4099 18.8566C62.1954 19.6429 62.6371 20.7093 62.6371 21.8208C62.6371 22.9322 62.1959 23.9981 61.4104 24.7844L22.5359 63.658C22.5359 63.658 22.5359 63.658 22.5359 63.658C22.1467 64.0473 21.6845 64.3561 21.176 64.5667C20.6674 64.7774 20.1223 64.8858 19.5718 64.8858C19.0214 64.8858 18.4763 64.7774 17.9677 64.5667C17.4592 64.3561 16.9972 64.0474 16.608 63.6582C16.6079 63.6582 16.608 63.6583 16.608 63.6582L16.0321 63.0827L14.0945 65.0203C13.3765 65.7383 12.4027 66.1417 11.3873 66.1417C10.3719 66.1417 9.39815 65.7383 8.68017 65.0204L7.53701 63.8772L1.70711 69.7071C1.31658 70.0976 0.683417 70.0976 0.292893 69.7071C-0.0976312 69.3166 -0.0976309 68.6834 0.292893 68.2929L6.1228 62.463L4.97831 61.3185C4.26033 60.6005 3.85697 59.6267 3.85697 58.6114C3.85697 57.596 4.26032 56.6222 4.97831 55.9042C4.98817 55.8943 4.99818 55.8847 5.00835 55.8754L6.91432 53.9694L6.34122 53.3966C5.95196 53.0073 5.64303 52.5451 5.43236 52.0365C5.2217 51.5279 5.11326 50.9828 5.11326 50.4324C5.11326 49.8819 5.2217 49.3368 5.43236 48.8282C5.64303 48.3196 5.9518 47.8575 6.34104 47.4683L14.9122 38.8971C15.3028 38.5066 15.9359 38.5066 16.3264 38.8971C16.717 39.2877 16.717 39.9208 16.3264 40.3114L7.75526 48.8825C7.55173 49.0861 7.39026 49.3277 7.28011 49.5936C7.16995 49.8595 7.11326 50.1445 7.11326 50.4324C7.11326 50.7202 7.16995 51.0052 7.28011 51.2711C7.39023 51.537 7.55162 51.7785 7.75508 51.982C7.75503 51.982 7.75513 51.9821 7.75508 51.982L18.0218 62.2437C18.2253 62.4472 18.4672 62.6088 18.7331 62.719C18.999 62.8291 19.284 62.8858 19.5718 62.8858C19.8597 62.8858 20.1447 62.8291 20.4106 62.719C20.6765 62.6088 20.9181 62.4474 21.1217 62.2439L26.4161 56.9495L23.8229 54.3562C23.4323 53.9657 23.4323 53.3325 23.8229 52.942C24.2134 52.5515 24.8466 52.5515 25.2371 52.942L27.8304 55.5353L33.1328 50.233L30.539 47.6393C30.1485 47.2487 30.1485 46.6156 30.539 46.2251C30.9295 45.8345 31.5627 45.8345 31.9532 46.2251L34.547 48.8188L39.8492 43.5167L37.2551 40.9233C36.8646 40.5329 36.8645 39.8997 37.255 39.5091C37.6454 39.1185 38.2786 39.1185 38.6692 39.5089L41.2634 42.1025L46.5656 36.8005L43.9719 34.2062C43.5814 33.8156 43.5815 33.1825 43.9721 32.792C44.3627 32.4015 44.9958 32.4016 45.3863 32.7922L47.9798 35.3863L53.282 30.0842L50.688 27.4902C50.2975 27.0997 50.2975 26.4666 50.688 26.076C51.0786 25.6855 51.7117 25.6855 52.1023 26.076L54.6962 28.67L59.9954 23.3709C60.4063 22.9597 60.6371 22.4021 60.6371 21.8208C60.6371 21.2395 60.4064 20.682 59.9956 20.2707C59.9955 20.2707 59.9956 20.2708 59.9956 20.2707L57.7965 18.0725C57.7802 18.0582 57.7643 18.0433 57.7488 18.0278L51.9725 12.2515C51.966 12.245 51.9595 12.2383 51.9531 12.2316L49.7292 10.0086C49.5257 9.80505 49.2839 9.64342 49.018 9.53327C48.7521 9.42313 48.4671 9.36643 48.1792 9.36643C47.8914 9.36643 47.6064 9.42313 47.3405 9.53327C47.0746 9.64342 46.833 9.80487 46.6294 10.0084L26.6517 29.9861C26.2612 30.3766 25.6281 30.3766 25.2375 29.9861C24.847 29.5955 24.847 28.9624 25.2375 28.5718L45.2152 8.59424C45.6044 8.205 46.0665 7.8962 46.5751 7.68553C47.0837 7.47486 47.6288 7.36643 48.1792 7.36643C48.7297 7.36643 49.2748 7.47486 49.7834 7.68553C50.2919 7.89619 50.7541 8.20498 51.1433 8.59424L52.6797 10.1301L57.9962 4.81366L54.8896 1.70711C54.4991 1.31658 54.4991 0.683418 54.8896 0.292894ZM59.4104 6.22787L54.0943 11.544L58.4573 15.9052L63.7725 10.59L59.4104 6.22787ZM8.32634 55.3858L6.39312 57.319C6.38523 57.3269 6.37725 57.3346 6.36916 57.3422C6.04088 57.6827 5.85697 58.1375 5.85697 58.6114C5.85697 59.0963 6.04961 59.5614 6.39252 59.9043L10.0944 63.6061C10.4373 63.9491 10.9024 64.1417 11.3873 64.1417C11.8723 64.1417 12.3373 63.9491 12.6803 63.6061L14.6135 61.6729L8.32634 55.3858ZM22.8711 32.3525C23.2617 32.743 23.2617 33.3762 22.8711 33.7667L19.8042 36.8337C19.4137 37.2242 18.7805 37.2242 18.39 36.8337C17.9994 36.4432 17.9994 35.81 18.39 35.4195L21.4569 32.3525C21.8475 31.962 22.4806 31.962 22.8711 32.3525Z" fill="black"/>
</svg>
