<svg width="83" height="69" viewBox="0 0 83 69" fill="none" xmlns="http://www.w3.org/2000/svg">
<path fill-rule="evenodd" clip-rule="evenodd" d="M40.8651 0.168006C41.1976 -0.0537418 41.6303 -0.0561658 41.9653 0.161842C41.9613 0.159252 42.576 0.519918 43.6637 1.15815C44.7526 1.79705 46.3155 2.71411 48.2063 3.82335C51.9598 6.02523 56.9577 8.9567 61.9533 11.8867L81.9266 23.6007C81.9269 23.6009 81.927 23.601 81.4212 24.4636L81.9266 23.6007C82.1629 23.7393 82.3324 23.969 82.3948 24.2357C82.4573 24.5024 82.4075 24.783 82.2573 25.0121L75.4664 35.3642C75.1764 35.8063 74.5924 35.9462 74.1335 35.6836L70.5549 33.6354V49.8213C70.6471 49.8058 70.7399 49.7926 70.8333 49.7817C72.1762 49.6259 73.5296 49.9692 74.6359 50.7465C75.7422 51.5237 76.5241 52.6806 76.8331 53.9969L76.8337 53.9994C77.0258 54.8276 77.0244 55.6889 76.8296 56.5165C76.6348 57.3433 76.2522 58.1142 75.7113 58.7692C75.7109 58.7698 75.7104 58.7703 75.71 58.7709L74.9391 58.1338L75.7113 58.7692C75.7112 58.7694 75.7115 58.7691 75.7113 58.7692C75.5726 58.9382 75.4963 59.1499 75.4953 59.3686C75.4943 59.5853 75.5674 59.7958 75.7021 59.9652C75.7001 59.9628 75.698 59.9603 75.6959 59.9578L74.928 60.5981L75.7062 59.9703C75.7048 59.9686 75.7035 59.9669 75.7021 59.9652C76.3836 60.7855 76.8124 61.786 76.9365 62.8454C77.0609 63.908 76.8734 64.9838 76.3967 65.9416C75.9201 66.8994 75.1749 67.6977 74.2522 68.239C73.3295 68.7803 72.2692 69.0412 71.2007 68.9899C71.2011 68.9899 71.2015 68.9899 71.2019 68.9899L71.2487 67.991L71.2007 68.9899C68.4769 68.8616 66.2412 66.6927 65.983 64.0114H66.9683V63.6091L67.9593 63.5837C68.0073 65.3899 69.4938 66.9077 71.2955 66.9921L71.2967 66.9922C71.9772 67.0249 72.6525 66.8587 73.2402 66.5139C73.8279 66.1692 74.3026 65.6607 74.6062 65.0505C74.9099 64.4404 75.0293 63.755 74.9501 63.0781C74.8708 62.4011 74.5962 61.7619 74.1598 61.2385L74.1495 61.226C73.7233 60.6976 73.4922 60.0383 73.4953 59.3594C73.4984 58.6805 73.7355 58.0234 74.1666 57.4989L74.1683 57.4968C74.5139 57.0786 74.7584 56.5862 74.8828 56.058C75.007 55.5306 75.0081 54.9817 74.886 54.4538C74.8858 54.453 74.8856 54.4522 74.8854 54.4515L75.8592 54.2255L74.886 54.4538C74.886 54.4537 74.886 54.4538 74.886 54.4538C74.6891 53.6151 74.1909 52.8781 73.4861 52.383C72.7814 51.8878 71.9193 51.6691 71.0638 51.7684C70.7134 51.8091 70.374 51.902 70.0561 52.0417C70.0064 52.0706 69.954 52.0953 69.8993 52.1153C69.5036 52.3131 69.1455 52.5855 68.8465 52.9215C68.2738 53.5649 67.9575 54.3965 67.9579 55.2581C67.9579 55.3235 67.9601 55.4308 67.9627 55.5298L67.9662 55.6515L67.9673 55.6879L67.9677 55.7C67.9766 55.9708 67.8754 56.2342 67.687 56.4289C67.4986 56.6237 67.2392 56.7336 66.9683 56.7336H50.4262C50.1545 56.7336 49.8945 56.6231 49.706 56.4274C49.5176 56.2318 49.4168 55.9678 49.4269 55.6964L49.427 55.6929L49.4274 55.6812L49.4289 55.6363C49.4302 55.598 49.4318 55.545 49.4332 55.4861C49.4362 55.3623 49.4379 55.236 49.4361 55.1624C49.3878 53.3549 47.8995 51.836 46.0963 51.7529L46.0949 51.7528C45.4146 51.7205 44.7396 51.887 44.1523 52.232C43.5649 52.5769 43.0907 53.0855 42.7874 53.6955C42.4842 54.3056 42.365 54.9908 42.4446 55.6675C42.5241 56.3442 42.7989 56.9831 43.2353 57.5062L43.2458 57.519C43.6721 58.0474 43.9031 58.7067 43.9 59.3856C43.8969 60.0644 43.6599 60.7215 43.2288 61.2461L43.227 61.2483C42.8813 61.6664 42.6367 62.1587 42.5124 62.6869C42.388 63.2148 42.3871 63.7643 42.5097 64.2927C42.7068 65.1307 43.2049 65.8672 43.9092 66.362C44.614 66.8571 45.4761 67.0759 46.3315 66.9766C47.187 66.8773 47.9762 66.4669 48.5489 65.8235C49.1216 65.1801 49.4379 64.3484 49.4375 63.4869C49.4375 63.4227 49.4351 63.3164 49.4322 63.2174C49.4309 63.1699 49.4295 63.127 49.4285 63.0961L49.4269 63.0502L49.4269 63.0478C49.4172 62.7765 49.5181 62.5124 49.7066 62.317C49.895 62.1217 50.1548 62.0114 50.4262 62.0114H66.9683C67.2396 62.0114 67.4992 62.1216 67.6877 62.3168C67.8761 62.5119 67.9772 62.7753 67.9677 63.0464L67.9676 63.0499L67.9672 63.0616L67.9657 63.1066C67.9646 63.145 67.9631 63.1981 67.9618 63.2571M67.9593 63.5837C67.9593 63.5834 67.9593 63.5839 67.9593 63.5837L66.9683 63.6091V63.0114L66.0966 62.9809C65.9689 62.9764 65.9689 62.9764 65.9689 62.9765L65.9687 62.9819L65.9682 62.9959L65.9667 63.0461C65.9654 63.0882 65.9637 63.1465 65.9623 63.2118C65.9595 63.3356 65.9567 63.5069 65.96 63.6349C65.9633 63.7612 65.971 63.8872 65.983 64.0114H51.4126C51.4292 63.8376 51.4375 63.6624 51.4375 63.4864M41.6843 59.9754C41.1432 60.6304 40.7604 61.4014 40.5656 62.2284C40.3707 63.0561 40.3693 63.9175 40.5617 64.7458L40.5622 64.748C40.8712 66.0644 41.6532 67.2212 42.7594 67.9985C43.8657 68.7757 45.2191 69.1191 46.5621 68.9633C47.9051 68.8074 49.1439 68.1632 50.0428 67.1532C50.8247 66.2748 51.302 65.1731 51.4126 64.0114M41.6843 59.9754C41.6841 59.9757 41.6839 59.9759 41.6837 59.9762L42.4562 60.6111L41.6855 59.974C41.6851 59.9744 41.6847 59.9749 41.6843 59.9754ZM41.6843 59.9754C41.8228 59.8065 41.899 59.595 41.9 59.3764C41.901 59.1596 41.828 58.9491 41.6931 58.7797C41.6953 58.7823 41.6975 58.7849 41.6996 58.7875L42.4675 58.1468L41.6891 58.7747C41.6905 58.7764 41.6918 58.778 41.6931 58.7797C41.0117 57.9599 40.5827 56.9599 40.4583 55.901C40.3334 54.8388 40.5204 53.7631 40.9965 52.8053C41.4726 51.8475 42.2171 51.0491 43.1393 50.5074C44.0616 49.9658 45.1215 49.7043 46.1898 49.7551C48.9157 49.8814 51.1532 52.0514 51.4123 54.7336H55.5328V43.4735C55.5328 42.5256 55.1563 41.6166 54.4863 40.9464C53.8162 40.2762 52.9075 39.8997 51.96 39.8997H30.8823C29.9348 39.8997 29.0261 40.2762 28.3561 40.9464C27.686 41.6166 27.3095 42.5256 27.3095 43.4735V62.2941C27.3095 63.9281 26.6605 65.4952 25.5053 66.6507C24.3501 67.8062 22.7832 68.4554 21.1493 68.4554H18.2774C18.2774 68.4554 18.2775 68.4554 18.2774 68.4554C17.4908 68.4555 16.7117 68.3006 15.9849 67.9996C15.2581 67.6986 14.5977 67.2573 14.0415 66.7009C13.4852 66.1445 13.0441 65.484 12.7431 64.7571C12.4422 64.0303 12.2873 63.2512 12.2874 62.4645C12.2874 62.4645 12.2874 62.4646 12.2874 62.4645V33.6368L8.70882 35.6853C8.24995 35.9479 7.66589 35.808 7.37588 35.3659L0.584999 25.0138C0.434766 24.7848 0.385044 24.5042 0.447445 24.2375C0.509845 23.9708 0.678904 23.7414 0.91515 23.6028L10.3549 18.065C10.8313 17.7856 11.444 17.9452 11.7234 18.4216C12.0029 18.8979 11.8433 19.5106 11.3669 19.7901L2.83395 24.7959L8.53198 33.482L12.7499 31.0675C12.7771 31.0502 12.8051 31.0341 12.8339 31.0194L40.9231 14.9404C41.2308 14.7642 41.6088 14.7642 41.9166 14.9403L70.0377 31.035C70.0465 31.0399 70.0553 31.0449 70.064 31.0501L74.3103 33.4803L80.0083 24.7942L60.9415 13.6119C52.3211 8.55593 43.6442 3.46669 41.4197 2.15938C39.3591 3.37118 31.8532 7.77375 23.8086 12.4923C22.9136 13.0173 22.0119 13.5462 21.1102 14.075C20.6339 14.3544 20.0212 14.1948 19.7417 13.7184C19.4623 13.242 19.622 12.6293 20.0984 12.3499C25.3109 9.29243 30.5057 6.2454 34.4019 3.9597C36.0269 3.00639 37.4157 2.19145 38.4847 1.56416C40.0003 0.674807 40.8731 0.162623 40.8651 0.168006M68.5549 32.4907L41.4199 16.9605L14.2874 32.4919V62.4645C14.2874 62.9886 14.3905 63.5078 14.591 63.9921C14.7915 64.4763 15.0854 64.9163 15.4558 65.2868C15.8263 65.6574 16.2662 65.9513 16.7503 66.1518C17.2344 66.3523 17.7532 66.4555 18.2771 66.4554H21.1493C22.2526 66.4554 23.3107 66.017 24.0909 65.2367C24.8711 64.4563 25.3095 63.3978 25.3095 62.2941V43.4735C25.3095 41.9953 25.8966 40.5776 26.9417 39.5323C27.9868 38.487 29.4042 37.8997 30.8823 37.8997H51.96C53.438 37.8997 54.8556 38.487 55.9007 39.5323C56.9457 40.5776 57.5328 41.9953 57.5328 43.4735V54.7336H65.9827C66.0934 53.5719 66.5707 52.4702 67.3525 51.5918C67.7057 51.195 68.1112 50.8548 68.5549 50.5783V32.4907ZM17.3915 15.0972C17.6709 15.5736 17.5112 16.1863 17.0348 16.4657L15.6273 17.2912C15.1509 17.5706 14.5382 17.4109 14.2588 16.9345C13.9794 16.4581 14.1391 15.8454 14.6155 15.566L16.023 14.7405C16.4994 14.4611 17.1121 14.6208 17.3915 15.0972Z" fill="black"/>
</svg>
